<svg width="24" height="24" viewBox="0 0 24 24" fill="none" xmlns="http://www.w3.org/2000/svg">
<rect width="24" height="24" rx="6" fill="black"/>
<path d="M23.014 11C22.932 11 21.014 10.966 21.014 8C21.014 3.264 17.745 2.004 16.014 2H15.014V4H16.003C16.311 4.006 19.014 4.173 19.014 8C19.014 9.993 19.679 11.246 20.516 12C19.679 12.754 19.014 14.007 19.014 16C19.014 19.827 16.311 19.994 16.014 20H15.014V22H16.016C17.745 21.996 21.014 20.736 21.014 16C21.014 13.2 22.692 13.01 23.028 13L23.014 11Z" fill="white"/>
<path d="M9.014 22H8.014C6.283 21.996 3.014 20.736 3.014 16C3.014 13.034 1.096 13 1.014 13L1 11C1.336 10.99 3.014 10.8 3.014 8C3.014 3.264 6.283 2.004 8.012 2H9.014V4H8.014C7.717 4.006 5.014 4.173 5.014 8C5.014 9.993 4.349 11.246 3.512 12C4.349 12.754 5.014 14.007 5.014 16C5.014 19.827 7.717 19.994 8.025 20H9.014V22Z" fill="white"/>
<path fill-rule="evenodd" clip-rule="evenodd" d="M12.8765 6V13.6105L14.8932 11.5969L16.2842 12.9902L11.8921 17.3754L7.5 12.9902L8.89103 11.5969L10.9077 13.6105V6H12.8765Z" fill="white"/>
</svg>
